<?xml version="1.0" encoding="UTF-8"?>
<svg version="1.1" xmlns="http://www.w3.org/2000/svg" width="1080" height="353">
<path d="M0 0 C356.4 0 712.8 0 1080 0 C1080 116.49 1080 232.98 1080 353 C723.6 353 367.2 353 0 353 C0 236.51 0 120.02 0 0 Z " fill="#1C1F2E" transform="translate(0,0)"/>
<path d="M0 0 C1.74977657 -0.00135908 3.49955286 -0.00314184 5.24932861 -0.00531006 C9.95179207 -0.00982417 14.6542333 -0.0081199 19.35669708 -0.00493097 C24.30859939 -0.00237595 29.26049995 -0.00475358 34.21240234 -0.00631714 C42.52376645 -0.00812973 50.83512163 -0.00575649 59.14648438 -0.00097656 C68.71679843 0.00446429 78.28709117 0.00270099 87.85740471 -0.00280297 C96.11608498 -0.00736011 104.37475889 -0.00797197 112.63344002 -0.0053643 C117.54768345 -0.00381579 122.4619169 -0.00356824 127.37615967 -0.00690079 C131.99904107 -0.00981751 136.62189535 -0.00773494 141.24477386 -0.00200653 C142.92802638 -0.00069912 144.61128123 -0.00103806 146.29453278 -0.0032692 C175.47960231 -0.03834797 202.27749122 2.81396701 224.6328125 23.75439453 C242.77211971 42.63915272 246.40559508 67.75306816 246.27050781 92.74755859 C246.27130074 94.66145928 246.27340428 96.5753598 246.27670288 98.48925781 C246.28179089 103.63779083 246.26839519 108.78612039 246.25117588 113.93462086 C246.23602106 119.3475014 246.23731115 124.7603806 246.23651123 130.17327881 C246.23283158 139.25471419 246.21792859 148.3360734 246.1953125 157.41748047 C246.16640732 169.04737424 246.15608297 180.67720692 246.1516304 192.30713272 C246.14764023 202.34645927 246.13514438 212.38577274 246.12128353 222.42508984 C246.11720175 225.63381864 246.11426753 228.84254699 246.11148834 232.05127716 C246.10656536 237.10424069 246.09631213 242.157168 246.08205032 247.21011353 C246.07756044 249.05629906 246.07469659 250.90248943 246.07364273 252.74868011 C246.05498785 279.45695813 242.75688782 305.40002135 223.484375 325.75048828 C206.4093009 341.55401431 184.40972122 348.28238122 161.48747253 348.27656555 C160.68943421 348.28024224 159.89139589 348.28391893 159.06917459 348.28770703 C156.42135375 348.29863295 153.7735723 348.30256869 151.12573242 348.30639648 C149.21599201 348.31266971 147.3062528 348.31931726 145.39651489 348.3263092 C139.14586217 348.34725632 132.89520947 348.35770539 126.64453125 348.36767578 C124.48271485 348.37172735 122.32089857 348.37584439 120.15908241 348.38002586 C109.99506911 348.39905994 99.83106296 348.41329261 89.66703528 348.42163783 C77.98302515 348.43139253 66.29920536 348.45767344 54.61526221 348.49813873 C45.55327047 348.52843252 36.49133288 348.54311936 27.42929155 348.54641885 C22.03183252 348.54875489 16.63457721 348.55752472 11.23717308 348.58288002 C6.14890411 348.60639808 1.06096958 348.61030005 -4.02733994 348.60011864 C-5.87823674 348.59962882 -7.72915138 348.60578207 -9.57999611 348.61967468 C-36.96010409 348.81342329 -61.08336414 342.77794005 -81.0859375 323.12939453 C-81.63894531 322.58927734 -82.19195312 322.04916016 -82.76171875 321.49267578 C-95.32632392 308.04753224 -100.22885361 290.13791845 -100.23983765 272.12588501 C-100.2442199 271.24168424 -100.24860215 270.35748347 -100.2531172 269.44648874 C-100.2664296 266.49524803 -100.27266703 263.54403714 -100.27880859 260.59277344 C-100.28671567 258.47156644 -100.29498499 256.35036078 -100.30358887 254.22915649 C-100.32974394 247.27143629 -100.34511231 240.31371027 -100.359375 233.35595703 C-100.36473779 230.95448173 -100.37011531 228.55300646 -100.37550735 226.15153122 C-100.39712855 216.15578291 -100.415862 206.16003616 -100.42712975 196.1642704 C-100.44334846 181.87375097 -100.47648487 167.58350426 -100.53353059 153.2930876 C-100.57233472 143.22652207 -100.59177495 133.16002915 -100.59705031 123.09339082 C-100.60069003 117.09065623 -100.61256408 111.08821296 -100.64515305 105.08555984 C-100.67541736 99.43013497 -100.68148033 93.7751749 -100.66976929 88.11968613 C-100.66955007 86.05627959 -100.67772768 83.99285032 -100.69542313 81.92951965 C-100.87498345 59.76659578 -96.12012892 40.80249956 -80.29296875 24.30126953 C-79.56464844 23.58455078 -78.83632812 22.86783203 -78.0859375 22.12939453 C-77.45042969 21.49517578 -76.81492187 20.86095703 -76.16015625 20.20751953 C-66.64067942 11.29902362 -55.39498588 6.68008156 -43.0859375 3.12939453 C-42.29703125 2.89349609 -41.508125 2.65759766 -40.6953125 2.41455078 C-27.77128698 -0.96444062 -13.2765439 -0.01759791 0 0 Z " fill="#5798F6" transform="translate(100.0859375,1.87060546875)"/>
<path d="M0 0 C1.00489471 -0.00571014 2.00978943 -0.01142029 3.0451355 -0.01730347 C4.69783699 -0.01898026 4.69783699 -0.01898026 6.38392639 -0.02069092 C7.545271 -0.02565582 8.7066156 -0.03062073 9.90315247 -0.03573608 C13.75750822 -0.05037712 17.61182275 -0.05716484 21.46620178 -0.06268311 C23.46865693 -0.06698135 25.47111209 -0.07128013 27.47356707 -0.07565761 C33.05937186 -0.08747324 38.6451667 -0.09500676 44.23098272 -0.09845281 C51.43139015 -0.1029201 58.63160648 -0.12040375 65.83195585 -0.1494534 C71.41008093 -0.1711683 76.98815268 -0.18116246 82.56631953 -0.18249393 C85.89118868 -0.18353596 89.21573649 -0.19078736 92.54058647 -0.20731354 C96.26194825 -0.22448204 99.98285293 -0.22246659 103.70423889 -0.21600342 C104.78782181 -0.2252182 105.87140472 -0.23443298 106.98782349 -0.243927 C120.09607484 -0.1730702 130.20308182 2.83256801 139.93885803 11.70294189 C140.66073303 12.50731689 141.38260803 13.31169189 142.12635803 14.14044189 C143.11635803 15.19231689 143.11635803 15.19231689 144.12635803 16.26544189 C149.55182143 24.06454553 152.24893895 32.00965785 152.25575256 41.46514893 C152.25890472 42.72481476 152.26205688 43.98448059 152.26530457 45.28231812 C152.26351182 46.65429723 152.26146014 48.02627602 152.25917053 49.39825439 C152.25984564 50.82532772 152.26081738 52.25240094 152.2620697 53.67947388 C152.26354361 56.67705373 152.26140641 59.67460379 152.25672913 62.67218018 C152.25110346 66.45644676 152.25438424 70.24064214 152.26013565 74.02490616 C152.2950922 100.51530573 152.2950922 100.51530573 151.80604553 112.38262939 C151.78406097 113.10862335 151.76207642 113.83461731 151.73942566 114.58261108 C151.43420263 120.37444935 149.90355859 124.49653138 145.62635803 128.45294189 C142.02280908 130.88533744 139.35508688 131.26626473 135.11190796 131.27415466 C133.55803123 131.28055214 133.55803123 131.28055214 131.97276306 131.28707886 C130.83662567 131.28662567 129.70048828 131.28617249 128.52992249 131.28570557 C127.332892 131.28906418 126.13586151 131.29242279 124.90255737 131.29588318 C121.61716882 131.30376408 118.33181817 131.30706135 115.04642129 131.30769897 C112.99183332 131.30840989 110.93725196 131.31054507 108.88266563 131.31319618 C101.70876521 131.32245164 94.53488337 131.3265311 87.36097717 131.32574463 C80.68489832 131.32514482 74.00890053 131.335677 67.33284217 131.35148829 C61.59427141 131.36459249 55.85572703 131.36992727 50.11714143 131.36928922 C46.6929977 131.36903494 43.2689259 131.37184701 39.84479713 131.38246727 C36.01971883 131.39227919 32.19484797 131.38938386 28.36976624 131.38336182 C26.68074188 131.39179108 26.68074188 131.39179108 24.95759583 131.40039062 C16.73174739 131.36753094 9.85388829 130.59585436 2.68885803 126.20294189 C1.84452209 125.69891846 1.00018616 125.19489502 0.13026428 124.67559814 C-1.87364197 123.14044189 -1.87364197 123.14044189 -2.87364197 120.14044189 C-3.53364197 120.14044189 -4.19364197 120.14044189 -4.87364197 120.14044189 C-13.02735014 111.12844865 -17.35800388 102.45014197 -17.26182556 90.2276001 C-17.26708252 89.38736298 -17.27233948 88.54712585 -17.27775574 87.681427 C-17.29084196 84.93449715 -17.28226084 82.18815774 -17.27207947 79.44122314 C-17.27410291 77.51789744 -17.27701659 75.59457248 -17.28077698 73.67124939 C-17.28518441 69.6543136 -17.27881821 65.63757882 -17.26475525 61.6206665 C-17.24762964 56.47931406 -17.25753594 51.33843035 -17.27547264 46.19709492 C-17.28632369 42.23105855 -17.28285866 38.26513299 -17.27508926 34.29909325 C-17.27309271 32.40332165 -17.27552734 30.50753989 -17.28252792 28.61178017 C-17.29016803 25.96261615 -17.2785041 23.31420798 -17.26182556 20.6651001 C-17.26789825 19.88729691 -17.27397095 19.10949371 -17.28022766 18.30812073 C-17.21621115 12.80453009 -16.13180189 8.61618493 -12.37364197 4.49591064 C-8.12491949 1.18766059 -5.32230029 0.01811562 0 0 Z " fill="#DCE4F8" transform="translate(71.87364196777344,109.85955810546875)"/>
<path d="M0 0 C14.19 0 28.38 0 43 0 C50.50146564 22.40437737 57.92168836 44.83444446 65.29214859 67.28216553 C65.99636328 69.42642657 66.7010452 71.57053354 67.40585327 73.71459961 C68.53733718 77.15694527 69.66748216 80.59972788 70.79665184 84.04283333 C71.41425298 85.92523845 72.03294893 87.80728427 72.65168762 89.6893158 C74.86528324 96.44571797 77.00438728 103.21997672 79.08215332 110.01933289 C80.34677165 114.12612582 81.6741859 118.21075184 83.015625 122.29296875 C83.54958558 123.92769962 84.08343688 125.56246619 84.6171875 127.19726562 C85.44113979 129.7169633 86.26603177 132.23634303 87.09277344 134.75512695 C87.90298568 137.22523433 88.70957819 139.69649952 89.515625 142.16796875 C89.8905307 143.30530708 89.8905307 143.30530708 90.27301025 144.46562195 C92 149.7730132 92 149.7730132 92 152 C93.32 152 94.64 152 96 152 C96.15592621 151.32413345 96.31185242 150.64826691 96.47250366 149.95191956 C98.61342021 141.01269566 101.37219419 132.31842795 104.2265625 123.58984375 C104.73912495 122.01268388 105.25135513 120.43541599 105.76327515 118.85804749 C106.83501773 115.55845314 107.90934775 112.25971774 108.98583984 108.96166992 C110.33716517 104.82160372 111.6842251 100.68016769 113.02956963 96.5381546 C118.35210055 80.15253953 123.69857826 63.77584986 129.1991272 47.44895935 C131.12801931 41.70569662 132.95933605 35.95017347 134.625 30.125 C136.51397621 23.53058882 138.58859548 17.01050535 140.75 10.5 C141.05631348 9.57203613 141.36262695 8.64407227 141.67822266 7.68798828 C142.10820557 6.40384033 142.10820557 6.40384033 142.546875 5.09375 C142.93117676 3.94422852 142.93117676 3.94422852 143.32324219 2.77148438 C144 1 144 1 145 0 C148.02977804 -0.08871273 151.03667022 -0.1151935 154.06640625 -0.09765625 C154.97502914 -0.0962413 155.88365204 -0.09482635 156.81980896 -0.09336853 C159.73407221 -0.08775193 162.64825981 -0.07519665 165.5625 -0.0625 C167.53320202 -0.05748714 169.50390524 -0.05292386 171.47460938 -0.04882812 C176.31643559 -0.03777711 181.15820495 -0.02050138 186 0 C183.75863453 8.7028969 181.02323216 17.20862161 178.16796875 25.7265625 C177.69479902 27.14521286 177.22186355 28.56394138 176.74914551 29.98274231 C175.49229741 33.75214329 174.23151392 37.52021633 172.96975327 41.28797531 C172.18231444 43.64049215 171.39607933 45.9934078 170.61026001 48.34646606 C164.43363566 66.84166365 158.22432717 85.32479861 151.88742065 103.76580811 C146.34469017 119.89713495 140.96091376 136.08031607 135.58120728 152.26663208 C129.83461065 169.5526906 123.9919483 186.79730973 118 204 C101.83 204 85.66 204 69 204 C66.69401035 198.23502589 64.4647326 192.64505067 62.49584961 186.79052734 C62.27472252 186.13560806 62.05359543 185.48068878 61.82576752 184.80592346 C61.0986247 182.65014982 60.37547906 180.49305838 59.65234375 178.3359375 C59.12680372 176.77527509 58.60100403 175.21470009 58.07496643 173.65420532 C56.94857584 170.31103165 55.82393405 166.96727688 54.70068359 163.62304688 C52.91531561 158.3076225 51.12593589 152.99355405 49.3359375 147.6796875 C46.82790249 140.23320519 44.32141286 132.78620452 41.81591797 125.33886719 C36.58660834 109.79634606 31.34687653 94.2573411 26.1041441 78.71934319 C24.40500204 73.68341487 22.70691137 68.64713394 21.00978756 63.61052513 C19.68436875 59.67759353 18.35788856 55.74502029 17.03125 51.8125 C16.77849871 51.06291645 16.52574741 50.3133329 16.26533699 49.5410347 C13.46406704 41.2363103 10.64170256 32.93944497 7.77734375 24.65625 C7.51778648 23.90494308 7.25822922 23.15363617 6.99080658 22.37956238 C5.75643045 18.80789539 4.51858692 15.23749827 3.27453613 11.66918945 C2.84298218 10.42355225 2.41142822 9.17791504 1.96679688 7.89453125 C1.58551636 6.79987549 1.20423584 5.70521973 0.81140137 4.57739258 C0 2 0 2 0 0 Z " fill="#FDFDFD" transform="translate(392,106)"/>
<path d="M0 0 C9.29503655 8.02753157 14.53365024 17.85720009 16 30 C16.10128836 32.66394682 16.16371977 35.30366308 16.17358398 37.96728516 C16.180271 38.73080795 16.18695801 39.49433075 16.19384766 40.2809906 C16.20781555 41.92656541 16.21973527 43.57215865 16.22979546 45.21776199 C16.24631614 47.82414804 16.26955422 50.43039628 16.29469299 53.03671265 C16.36518965 60.44269877 16.42567988 67.84873787 16.47680664 75.25488281 C16.50861881 79.79529011 16.54988752 84.33553186 16.59700203 88.8758049 C16.61299345 90.60211592 16.6253282 92.32846489 16.63390923 94.05482864 C16.64608136 96.46722489 16.67023533 98.87923192 16.69702148 101.29150391 C16.69761063 102.00123856 16.69819977 102.71097321 16.69880676 103.44221497 C16.75657483 107.37418514 17.14180984 110.50438663 19 114 C21.83269666 115.41634833 24.47466438 115.3463005 27.625 115.5625 C29.40777344 115.68818359 29.40777344 115.68818359 31.2265625 115.81640625 C32.14179687 115.87699219 33.05703125 115.93757813 34 116 C34.50704109 119.37398089 35.00436536 122.74932621 35.5 126.125 C35.64308594 127.07632813 35.78617188 128.02765625 35.93359375 129.0078125 C36.61961337 133.71194706 37.19271007 138.2304257 37 143 C29.70338188 146.50845055 23.55889626 147.62877065 15.5 147.5 C14.04787109 147.52320313 14.04787109 147.52320313 12.56640625 147.546875 C4.00849234 147.50092647 -3.44376771 145.6123259 -9.875 139.75 C-13.68902259 135.56629673 -17 130.78377608 -17 125 C-20.57316967 126.19105656 -20.78220248 126.92112294 -22.625 130.0625 C-29.48573802 140.63947111 -38.30040347 145.10013449 -50 149 C-66.17322328 150.20111707 -82.84002574 149.56926595 -96.1875 139.3203125 C-101.86441531 134.13797694 -104.97422454 127.98626499 -108 121 C-108.34691895 120.23526367 -108.69383789 119.47052734 -109.05126953 118.68261719 C-112.2124761 109.74403311 -111.91631394 94.83548367 -108.8671875 85.8671875 C-107.45696211 82.98028631 -105.95771352 80.54095843 -104 78 C-103.55527344 77.33742188 -103.11054687 76.67484375 -102.65234375 75.9921875 C-92.06566935 61.73258525 -70.88522581 57.17612966 -54.3125 54.625 C-48.13392865 53.65988295 -42.17030951 52.39273294 -36.1875 50.5625 C-35.21067261 50.27270264 -35.21067261 50.27270264 -34.21411133 49.97705078 C-29.27422423 48.38730648 -25.29887895 46.28850101 -22.6875 41.6875 C-21.48949539 37.00439106 -21.54043294 33.32763816 -23.125 28.75 C-26.0788335 24.41771087 -30.02784986 23.06034157 -35 22 C-45.77726623 21.04991269 -56.07711781 21.3914045 -66 26 C-66.91910156 26.4125 -67.83820312 26.825 -68.78515625 27.25 C-75.42123948 30.53537454 -80.4291841 34.89963104 -85.58984375 40.12109375 C-88 42 -88 42 -89.91674805 41.92919922 C-94.65194085 39.81714674 -97.15725696 33.89848059 -99.875 29.6875 C-100.58914063 28.62853516 -101.30328125 27.56957031 -102.0390625 26.47851562 C-102.70421875 25.45822266 -103.369375 24.43792969 -104.0546875 23.38671875 C-104.66812012 22.45045654 -105.28155273 21.51419434 -105.91357422 20.54956055 C-107 18 -107 18 -106.32739258 15.80688477 C-95.91589495 1.63445624 -75.87088869 -6.31015261 -59.20507812 -9.54199219 C-39.73709329 -12.32398027 -16.24649268 -12.10584961 0 0 Z " fill="#FDFDFD" transform="translate(863,164)"/>
<path d="M0 0 C7.87024369 6.20734519 14.80865896 14.00480158 17 24 C11.07614017 28.96977663 4.93591882 33.59873194 -1.375 38.0625 C-2.06464844 38.56370361 -2.75429688 39.06490723 -3.46484375 39.58129883 C-4.45291016 40.27002075 -4.45291016 40.27002075 -5.4609375 40.97265625 C-6.04665527 41.38781494 -6.63237305 41.80297363 -7.23583984 42.23071289 C-9 43 -9 43 -11.13012695 42.75634766 C-13.88477525 41.64211598 -14.46423965 39.91188379 -15.8125 37.3125 C-20.02817104 29.89800319 -24.9928214 25.81734062 -33 23 C-43.8367851 20.43008247 -54.41684072 21.77396657 -64.1875 27.0625 C-72.05451202 32.38149193 -76.16895631 40.91520629 -78 50 C-79.14996666 56.29667057 -79.18356745 62.49640746 -79.1875 68.875 C-79.20586914 70.43154297 -79.20586914 70.43154297 -79.22460938 72.01953125 C-79.24835482 84.57295486 -76.78984893 96.84965585 -67.9296875 106.2421875 C-59.18756544 114.20565901 -50.26911982 114.5556881 -38.91943359 114.11865234 C-30.53768301 113.60052327 -25.20330958 110.31510952 -19.203125 104.55078125 C-15.19722787 99.91274787 -12.9218286 94.7654858 -11 89 C-6.49098153 89.54802752 -3.18057774 90.70423473 0.80078125 92.87109375 C1.85974609 93.44537109 2.91871094 94.01964844 4.00976562 94.61132812 C5.09966797 95.21396484 6.18957031 95.81660156 7.3125 96.4375 C8.42173828 97.03626953 9.53097656 97.63503906 10.67382812 98.25195312 C18.8658706 102.7317412 18.8658706 102.7317412 20 105 C17.42747657 113.75782568 12.7594576 121.02138714 7 128 C6.03320312 129.19109375 6.03320312 129.19109375 5.046875 130.40625 C-5.32793382 141.96901403 -20.65225714 147.25377794 -35.8359375 148.17138672 C-58.21192535 149.16125646 -78.18557257 146.07336437 -95.7578125 131.09375 C-106.57274853 120.99478535 -112.67154639 110.10584705 -117 96 C-117.32226562 94.99066406 -117.64453125 93.98132813 -117.9765625 92.94140625 C-124.13738599 69.88150151 -120.90933547 42.54738469 -109.25 21.8125 C-105.77712644 16.32196725 -101.53860127 11.62727732 -97 7 C-96.47019531 6.44570312 -95.94039062 5.89140625 -95.39453125 5.3203125 C-71.65714611 -17.25766308 -26.48293492 -17.5149973 0 0 Z " fill="#FDFDFD" transform="translate(716,165)"/>
<path d="M0 0 C12.87 0 25.74 0 39 0 C39.029729 8.05680176 39.029729 8.05680176 39.06005859 16.27636719 C39.12685919 33.99018951 39.20439943 51.70395266 39.28752708 69.41770554 C39.33768096 80.16126833 39.38412355 90.90482338 39.421875 101.6484375 C39.45478275 111.01092675 39.49460721 120.37335644 39.54279006 129.73578 C39.56806714 134.69458595 39.58984487 139.65335234 39.60334396 144.61220551 C39.61615332 149.27757786 39.63819557 153.94281458 39.66738319 158.60811234 C39.67646778 160.32217825 39.68215125 162.03626602 39.68421364 163.75035477 C39.68752997 166.08752917 39.70299008 168.42431759 39.7215271 170.76141357 C39.72705786 172.07035961 39.73258862 173.37930565 39.73828697 174.72791672 C39.98506324 177.8132522 40.24554191 179.49209676 42 182 C45.60178588 184.40119059 48.50866369 184.43771322 52.6875 184.625 C53.38939453 184.66367187 54.09128906 184.70234375 54.81445312 184.7421875 C56.54254655 184.8362334 58.27123675 184.9191968 60 185 C60.50488515 189.06190843 61.0030519 193.12461351 61.5 197.1875 C61.64308594 198.33798828 61.78617188 199.48847656 61.93359375 200.67382812 C62.13662109 202.34155273 62.13662109 202.34155273 62.34375 204.04296875 C62.46943359 205.06414795 62.59511719 206.08532715 62.72460938 207.13745117 C62.97897068 209.78141061 63.05115721 212.3462199 63 215 C56.83616587 217.69445575 51.8817543 218.45444121 45.1875 218.3125 C43.86419678 218.29340576 43.86419678 218.29340576 42.51416016 218.27392578 C29.14147449 217.97587919 19.18294347 215.73195575 9.625 205.75 C-0.64785167 193.3645861 -0.29552312 177.49750614 -0.22705078 162.2277832 C-0.22648571 160.45278429 -0.22680509 158.6777849 -0.22793579 156.90278625 C-0.22850657 152.11429256 -0.21679696 147.3259003 -0.20278788 142.53743005 C-0.19023451 137.52196287 -0.1891064 132.50649304 -0.18673706 127.49101257 C-0.18053578 118.00696059 -0.16414335 108.52295504 -0.14403808 99.03892344 C-0.12163688 88.23597835 -0.11067506 77.43303098 -0.10064721 66.63006842 C-0.07977586 44.42001399 -0.0431166 22.21002316 0 0 Z " fill="#FDFDFD" transform="translate(924,95)"/>
<path d="M0 0 C12.54 0 25.08 0 38 0 C38.01458252 5.3001416 38.02916504 10.6002832 38.04418945 16.06103516 C38.0944734 33.55134208 38.16090659 51.04155992 38.23571491 68.53177834 C38.28068567 79.13852571 38.32009741 89.74523942 38.34643555 100.35205078 C38.36940522 109.59665378 38.40279177 118.84115033 38.44870156 128.08566892 C38.47264762 132.98084112 38.49136736 137.8759078 38.49761391 142.77113724 C38.50365847 147.37911476 38.52363566 151.98682226 38.55427551 156.59469986 C38.5630658 158.28534572 38.56677627 159.97602685 38.56500816 161.66669464 C38.56335493 163.97705239 38.58005799 166.28658745 38.60127258 168.59683228 C38.60588155 169.88918604 38.61049051 171.1815398 38.61523914 172.5130558 C39.13933243 177.26271786 40.61802568 180.61802568 44 184 C46.56916657 184.30599063 49.04758384 184.51087087 51.625 184.625 C52.68460938 184.68300781 52.68460938 184.68300781 53.765625 184.7421875 C55.50998524 184.83647724 57.25495691 184.91932891 59 185 C61.23414765 194.99943756 62.16785697 204.76072491 62 215 C55.74998023 218.32804725 50.25184496 218.48539819 43.25 218.4375 C42.2290625 218.45748047 41.208125 218.47746094 40.15625 218.49804688 C29.21874317 218.49110683 19.41129914 215.09703365 11 208 C2.18226268 198.86734349 -0.17226064 187.55967391 -0.12025452 175.21083069 C-0.12110894 174.45755963 -0.12196337 173.70428858 -0.12284368 172.92819113 C-0.12448205 170.42093409 -0.11900418 167.91374495 -0.11352539 165.40649414 C-0.11324314 163.60252891 -0.113402 161.79856356 -0.1139679 159.99459839 C-0.11425438 155.10879498 -0.10838163 150.22301621 -0.10139394 145.33721852 C-0.0951357 140.22696511 -0.09455464 135.11671112 -0.09336853 130.00645447 C-0.0902625 120.33458148 -0.08205892 110.66271982 -0.07201904 100.99085182 C-0.0608353 89.97759948 -0.05534175 78.96434659 -0.05032361 67.95108998 C-0.03987571 45.30071893 -0.02153927 22.6503634 0 0 Z " fill="#FEFEFE" transform="translate(1013,95)"/>
<path d="M0 0 C3.35211493 2.18616191 4.72686604 3.18059812 6 7 C6.09305885 8.50700381 6.13057613 10.01777787 6.13371277 11.52764893 C6.13797775 12.4556279 6.14224274 13.38360687 6.14663696 14.33970642 C6.14618378 15.35585526 6.14573059 16.37200409 6.14526367 17.41894531 C6.14862228 18.49078568 6.1519809 19.56262604 6.15544128 20.66694641 C6.16496265 24.22068431 6.16689514 27.77437513 6.16796875 31.328125 C6.17118102 33.79571553 6.17454507 36.26330587 6.17805481 38.730896 C6.18404941 43.90930625 6.18589442 49.0876998 6.18530273 54.26611328 C6.18520121 60.89835585 6.19884192 67.53049112 6.21607494 74.16270828 C6.2272009 79.26196788 6.22922174 84.36120161 6.22869301 89.46047211 C6.22987267 91.90526448 6.23429364 94.35005752 6.24202538 96.79483795 C6.25183502 100.21779351 6.24894297 103.64051718 6.24291992 107.06347656 C6.24853943 108.07152847 6.25415894 109.07958038 6.25994873 110.11817932 C6.23609629 115.45938007 5.91398636 119.98683015 4 125 C1.12152804 127.54950374 -0.67262556 127.96492417 -4.5 128.375 C-10.79544435 127.70048811 -14.81650939 123.61181495 -19.4375 119.5625 C-20.67680708 118.48535915 -21.91639887 117.40854582 -23.15625 116.33203125 C-23.78917969 115.78111816 -24.42210937 115.23020508 -25.07421875 114.66259766 C-26.96253834 113.03234202 -28.86781357 111.42488191 -30.78125 109.82421875 C-48.17711977 95.2406621 -48.17711977 95.2406621 -50 86 C-50.30062896 82.42640992 -50.32771176 78.86618293 -50.3359375 75.28125 C-50.3425943 74.26454224 -50.3492511 73.24783447 -50.35610962 72.20031738 C-50.36619767 70.0588562 -50.37092784 67.91736383 -50.37060547 65.77587891 C-50.3749863 62.51021477 -50.41136871 59.24589491 -50.44921875 55.98046875 C-50.45508627 53.89323376 -50.4590561 51.80599239 -50.4609375 49.71875 C-50.47530853 48.74877075 -50.48967957 47.7787915 -50.50448608 46.77941895 C-50.45688622 39.67917053 -49.08325088 35.58934475 -44.38769531 30.12304688 C-43.87303711 29.65962891 -43.35837891 29.19621094 -42.828125 28.71875 C-42.25030273 28.19055664 -41.67248047 27.66236328 -41.07714844 27.11816406 C-40.47418945 26.58416992 -39.87123047 26.05017578 -39.25 25.5 C-38.62383789 24.93249023 -37.99767578 24.36498047 -37.35253906 23.78027344 C-35.57742137 22.17631794 -33.79174702 20.58533436 -32 19 C-31.2265625 18.31421875 -30.453125 17.6284375 -29.65625 16.921875 C-28.41828378 15.83611774 -27.17506025 14.75631512 -25.92578125 13.68359375 C-24.4432839 12.38753623 -22.98717729 11.06124699 -21.54296875 9.72265625 C-8.35594453 -2.47583542 -8.35594453 -2.47583542 0 0 Z " fill="#D8E0F6" transform="translate(284,112)"/>
<path d="M0 0 C0.05843491 4.02077152 0.0937424 8.04143259 0.125 12.0625 C0.14175781 13.19623047 0.15851562 14.32996094 0.17578125 15.49804688 C0.21029589 21.41730845 0.06918898 26.43535965 -2 32 C-2.26039063 32.721875 -2.52078125 33.44375 -2.7890625 34.1875 C-5.8725527 40.87319838 -10.8998743 45.84913755 -17.625 48.9375 C-24.70442002 51.19004273 -33.4931071 51.12862051 -40.5625 48.875 C-46.09282387 45.85845971 -49.00408359 42.02291957 -51 36 C-51.66294264 29.603034 -51.94682738 23.34731451 -48 18 C-40.31968896 9.35965007 -28.39118786 8.28494817 -17.59179688 5.98242188 C-11.81860451 4.67552338 -5.50388322 0 0 0 Z " fill="#1D202F" transform="translate(842,234)"/>
<path d="M0 0 C0.33 0 0.66 0 1 0 C1.00364563 1.06773651 1.00729126 2.13547302 1.01104736 3.23556519 C1.0480862 13.3279054 1.10595573 23.419943 1.18390274 33.51205254 C1.22330957 38.69977913 1.25553135 43.88733771 1.27099609 49.07519531 C1.28620744 54.08748405 1.3207323 59.09931066 1.36830902 64.11139297 C1.38307673 66.01777236 1.39103835 67.92421775 1.39188385 69.83065414 C1.25766027 83.91588484 1.25766027 83.91588484 6 97 C6.34347473 97.68061493 6.68694946 98.36122986 7.04083252 99.06246948 C8.73460564 102.27460766 9.93373117 103.95582078 13 106 C13 106.66 13 107.32 13 108 C13.66 108 14.32 108 15 108 C15.515625 108.556875 16.03125 109.11375 16.5625 109.6875 C25.23926496 117.91930265 34.58799376 118.14985931 45.96875 118.16113281 C47.16943115 118.16609772 48.3701123 118.17106262 49.60717773 118.17617798 C52.88811818 118.18824719 56.16902309 118.19573362 59.44998169 118.20018864 C61.5020576 118.20312795 63.55412804 118.2072342 65.60620117 118.21169281 C72.03371401 118.22534695 78.46121421 118.23502544 84.88874054 118.2388947 C92.2963269 118.24337936 99.7037291 118.26095474 107.11125946 118.2898953 C112.84731166 118.31152482 118.58331206 118.32159955 124.3194046 118.32293582 C127.74124757 118.32398235 131.16291692 118.32985845 134.5847168 118.34775543 C138.40037058 118.3647896 142.21557373 118.36294218 146.03125 118.35644531 C147.15974365 118.3656601 148.2882373 118.37487488 149.45092773 118.3843689 C155.01278559 118.35466913 159.26353011 118.27991251 164 115 C165.84434349 112.53884453 165.84434349 112.53884453 167 110 C167.33 109.34 167.66 108.68 168 108 C168.2409881 105.14086962 168.42393588 102.30191556 168.5625 99.4375 C168.62727539 98.30538086 168.62727539 98.30538086 168.69335938 97.15039062 C168.96138763 91.91320352 169.01625969 86.68830273 168.99609375 81.4453125 C168.95370478 69.77283252 169.24619522 58.10655805 169.5 46.4375 C169.54834057 44.15430033 169.59651875 41.87109722 169.64453125 39.58789062 C169.76115249 34.05855273 169.87976402 28.52926042 170 23 C175.4297055 31.14455825 173.17901453 44.98536511 173.203125 54.640625 C173.20736607 55.80065662 173.20736607 55.80065662 173.21169281 56.98412323 C173.22655559 61.06526516 173.2358702 65.14637282 173.24023438 69.22753906 C173.24574582 73.4190972 173.26986659 77.61033495 173.29820633 81.80179214 C173.31688201 85.05158406 173.3220406 88.3012988 173.32357025 91.55113983 C173.3265787 93.09639007 173.33454546 94.64163954 173.34775543 96.18683624 C173.48726763 113.73598599 173.48726763 113.73598599 168.31640625 120.05859375 C167.73761719 120.51363281 167.15882813 120.96867187 166.5625 121.4375 C165.98628906 121.91058594 165.41007813 122.38367188 164.81640625 122.87109375 C162.8533434 124.09114786 161.2542075 124.54121804 159 125 C157.845 125.350625 156.69 125.70125 155.5 126.0625 C151.4801036 127.13925796 147.75292109 127.00208829 143.63562012 126.96876526 C142.76924423 126.96179626 141.90286835 126.95482727 141.01023865 126.94764709 C140.06777786 126.9398674 139.12531708 126.93208771 138.15429688 126.92407227 C137.15552017 126.91592499 136.15674347 126.90777771 135.12770081 126.89938354 C125.94847408 126.82381171 116.76929335 126.74311073 107.59012604 126.66066074 C101.42289562 126.60537588 95.2556608 126.55192532 89.08837891 126.50268555 C83.12504414 126.45501989 77.16176722 126.40268673 71.19850159 126.34705925 C68.92429532 126.32665945 66.65007333 126.30794246 64.37583923 126.29092598 C61.19906864 126.26685716 58.02240763 126.23680888 54.84570312 126.20532227 C53.90324234 126.1995668 52.96078156 126.19381134 51.98976135 126.18788147 C51.12338547 126.17809265 50.25700958 126.16830383 49.36437988 126.15821838 C48.61370491 126.15176583 47.86302994 126.14531328 47.08960724 126.1386652 C44.95382422 125.9969358 43.05552236 125.58326744 41 125 C41 125.66 41 126.32 41 127 C37.04 126.01 33.08 125.02 29 124 C29 123.34 29 122.68 29 122 C26.36 121.67 23.72 121.34 21 121 C21 120.34 21 119.68 21 119 C20.443125 118.9175 19.88625 118.835 19.3125 118.75 C12.42504856 116.51623196 6.70909446 109.25113457 3.44140625 103.03515625 C2.23375352 100.37695181 1.08167025 97.71165261 0 95 C-0.33 95 -0.66 95 -1 95 C-1.06058594 94.32453125 -1.12117188 93.6490625 -1.18359375 92.953125 C-1.26738281 92.06109375 -1.35117187 91.1690625 -1.4375 90.25 C-1.51871094 89.36828125 -1.59992187 88.4865625 -1.68359375 87.578125 C-1.93456877 85.09760258 -1.93456877 85.09760258 -2.47265625 83.109375 C-4.12562013 76.49751949 -4.14677473 69.97116402 -4.1328125 63.1953125 C-4.13376923 62.15792938 -4.13472595 61.12054626 -4.13571167 60.05172729 C-4.13639041 57.85805195 -4.13455749 55.66437458 -4.13037109 53.47070312 C-4.12507308 50.17052491 -4.13029818 46.87048621 -4.13671875 43.5703125 C-4.15077954 8.48202775 -4.15077954 8.48202775 0 0 Z " fill="#1C4595" transform="translate(54,122)"/>
<path d="M0 0 C2.09778883 3.14668324 2.3446148 4.39580263 2.66796875 8.05078125 C2.80150757 9.55499634 2.80150757 9.55499634 2.93774414 11.08959961 C3.06137329 12.6849353 3.06137329 12.6849353 3.1875 14.3125 C3.27572021 15.39088135 3.36394043 16.4692627 3.45483398 17.58032227 C3.98402587 24.74455962 4.00826349 31.53824255 3.19140625 38.68359375 C3.12824219 39.44800781 3.06507813 40.21242187 3 41 C3.33 41.33 3.66 41.66 4 42 C4.16145001 44.96580409 4.26005863 47.91047901 4.31640625 50.87890625 C4.3373233 51.79021805 4.35824036 52.70152985 4.37979126 53.64045715 C4.44622144 56.61438219 4.50495637 59.58839057 4.5625 62.5625 C4.59327133 64.06638275 4.59327133 64.06638275 4.62466431 65.60064697 C4.76372804 72.40021437 4.88635038 79.1999645 5 86 C5.01309204 86.75089905 5.02618408 87.5017981 5.03967285 88.27545166 C5.10912164 92.30861254 5.15821107 96.34135548 5.1875 100.375 C5.20047119 101.29740479 5.21344238 102.21980957 5.22680664 103.17016602 C5.23358906 107.87580526 4.77258017 111.56512759 3 116 C2.814375 117.051875 2.814375 117.051875 2.625 118.125 C1.69196988 120.92409036 0.2800508 122.13995856 -2 124 C-4.30252483 125.06902939 -6.6372026 126.07175817 -9 127 C-10.34013497 127.65288627 -11.67741528 128.31225595 -13 129 C-13.33 128.01 -13.66 127.02 -14 126 C-14.99 126 -15.98 126 -17 126 C-17 125.34 -17 124.68 -17 124 C-19.0810115 122.35603134 -19.0810115 122.35603134 -21.6875 120.6875 C-25.58557289 118.03923297 -28.8250147 115.46362033 -32 112 C-33.99134571 109.93206407 -35.55754252 108.62830499 -38 107 C-42.22796944 103.58356024 -46.32533869 100.00872143 -50 96 C-50 95.34 -50 94.68 -50 94 C-50.66 94 -51.32 94 -52 94 C-52 93.34 -52 92.68 -52 92 C-52.66 92 -53.32 92 -54 92 C-57.84879286 83.60263376 -59.31020125 76.11537253 -59.30078125 66.91796875 C-59.30506638 65.98197342 -59.3093515 65.04597809 -59.31376648 64.08161926 C-59.31947625 62.11765346 -59.32003497 60.15366653 -59.31567383 58.18969727 C-59.31249084 55.17883862 -59.33609368 52.16894222 -59.36132812 49.15820312 C-59.3635991 47.2447929 -59.36430555 45.33138004 -59.36328125 43.41796875 C-59.372491 42.51797653 -59.38170074 41.61798431 -59.39118958 40.6907196 C-59.38496078 39.8558754 -59.37873199 39.02103119 -59.37231445 38.16088867 C-59.37294388 37.42778976 -59.3735733 36.69469086 -59.3742218 35.93937683 C-58.90024596 33.48303205 -57.88390445 32.58183035 -56 31 C-55.99413376 31.57105469 -55.98826752 32.14210937 -55.98222351 32.73046875 C-55.91804057 38.70100208 -55.833558 44.67100875 -55.73754883 50.64111328 C-55.70439742 52.86597732 -55.67633534 55.09092348 -55.65356445 57.31591797 C-55.61983855 60.5234663 -55.56751288 63.73026866 -55.51171875 66.9375 C-55.50532883 67.92427734 -55.4989389 68.91105469 -55.49235535 69.92773438 C-55.27715083 80.15156375 -52.34999114 86.88942226 -45 94 C-40.74368306 97.88300193 -36.36178684 101.61787255 -31.96191406 105.33642578 C-30.04524939 106.96163149 -28.14209278 108.60134725 -26.2421875 110.24609375 C-25.07836838 111.24767871 -23.91431692 112.24899376 -22.75 113.25 C-22.21358887 113.71575439 -21.67717773 114.18150879 -21.12451172 114.66137695 C-16.4027233 118.68699451 -13.17379498 119.32493658 -7 119 C-4.63045713 118.60739458 -4.63045713 118.60739458 -3 117 C-0.77509102 111.03760546 -0.6947483 105.42303668 -0.68115234 99.10766602 C-0.66608391 97.49679359 -0.66608391 97.49679359 -0.65071106 95.8533783 C-0.61993546 92.32022616 -0.60285934 88.78714961 -0.5859375 85.25390625 C-0.56722136 82.79767713 -0.54764761 80.3414544 -0.5272522 77.88523865 C-0.47597232 71.43270646 -0.43632426 64.98015344 -0.39910889 58.52752686 C-0.35904337 51.93822086 -0.30796262 45.34900122 -0.2578125 38.75976562 C-0.16110221 25.83990554 -0.07630737 12.91999587 0 0 Z " fill="#396ABF" transform="translate(290,120)"/>
<path d="M0 0 C4.18656678 1.48555595 7.83280587 3.59509048 11.62109375 5.87890625 C17.91332206 8.84420925 25.16832594 8.15439647 31.96875 8.16113281 C33.16943115 8.16609772 34.3701123 8.17106262 35.60717773 8.17617798 C38.88811818 8.18824719 42.16902309 8.19573362 45.44998169 8.20018864 C47.5020576 8.20312795 49.55412804 8.2072342 51.60620117 8.21169281 C58.03371401 8.22534695 64.46121421 8.23502544 70.88874054 8.2388947 C78.2963269 8.24337936 85.7037291 8.26095474 93.11125946 8.2898953 C98.84731166 8.31152482 104.58331206 8.32159955 110.3194046 8.32293582 C113.74124757 8.32398235 117.16291692 8.32985845 120.5847168 8.34775543 C124.40037058 8.3647896 128.21557373 8.36294218 132.03125 8.35644531 C133.15974365 8.3656601 134.2882373 8.37487488 135.45092773 8.3843689 C143.15334845 8.34323874 147.93829699 6.89599089 154 2 C153.51999859 6.32001266 152.38496591 8.27322191 149 11 C145.44432071 12.68946731 142.64015033 13.24960004 138.71812439 13.24723816 C137.67367661 13.25143265 136.62922882 13.25562714 135.5531311 13.25994873 C134.41790009 13.25432922 133.28266907 13.24870972 132.11303711 13.24291992 C130.9092894 13.24481827 129.70554169 13.24671661 128.46531677 13.24867249 C125.17196698 13.25173877 121.87886903 13.2458808 118.58554912 13.23571944 C115.13610034 13.22691955 111.68665559 13.22869676 108.23719788 13.2290802 C102.44611339 13.22814448 96.65508139 13.21947244 90.86401367 13.20581055 C84.1707928 13.19007861 77.47762937 13.18481276 70.78439134 13.1855461 C63.65407592 13.18622179 56.52378261 13.17928005 49.39347386 13.1700995 C47.3404445 13.16796937 45.28741872 13.16725848 43.23438835 13.16686058 C39.40876107 13.16566863 35.58318144 13.15595319 31.75756836 13.14526367 C30.62031311 13.14571686 29.48305786 13.14617004 28.31134033 13.14663696 C26.74889839 13.14023949 26.74889839 13.14023949 25.15489197 13.13371277 C23.7985359 13.131199 23.7985359 13.131199 22.41477871 13.12863445 C20.13892149 13.0074003 18.18125682 12.63916274 16 12 C16 11.34 16 10.68 16 10 C14.824375 9.9071875 14.824375 9.9071875 13.625 9.8125 C8.64711207 8.6967665 4.47546306 6.39693773 0 4 C0 2.68 0 1.36 0 0 Z " fill="#2B4181" transform="translate(68,232)"/>
<path d="M0 0 C0.33 0 0.66 0 1 0 C1.00364563 1.06773651 1.00729126 2.13547302 1.01104736 3.23556519 C1.0480862 13.3279054 1.10595573 23.419943 1.18390274 33.51205254 C1.22330957 38.69977913 1.25553135 43.88733771 1.27099609 49.07519531 C1.28620744 54.08748405 1.3207323 59.09931066 1.36830902 64.11139297 C1.38307673 66.01777236 1.39103835 67.92421775 1.39188385 69.83065414 C1.25766027 83.91588484 1.25766027 83.91588484 6 97 C6.34347473 97.68061493 6.68694946 98.36122986 7.04083252 99.06246948 C8.73460564 102.27460766 9.93373117 103.95582078 13 106 C13 106.66 13 107.32 13 108 C13.66 108 14.32 108 15 108 C14.67 109.65 14.34 111.3 14 113 C17.19668988 115.6486859 20.39486597 117.93992341 24 120 C22.515 120.495 22.515 120.495 21 121 C21 120.34 21 119.68 21 119 C20.443125 118.9175 19.88625 118.835 19.3125 118.75 C12.42504856 116.51623196 6.70909446 109.25113457 3.44140625 103.03515625 C2.23375352 100.37695181 1.08167025 97.71165261 0 95 C-0.33 95 -0.66 95 -1 95 C-1.06058594 94.32453125 -1.12117188 93.6490625 -1.18359375 92.953125 C-1.26738281 92.06109375 -1.35117187 91.1690625 -1.4375 90.25 C-1.51871094 89.36828125 -1.59992187 88.4865625 -1.68359375 87.578125 C-1.93456877 85.09760258 -1.93456877 85.09760258 -2.47265625 83.109375 C-4.12562013 76.49751949 -4.14677473 69.97116402 -4.1328125 63.1953125 C-4.13376923 62.15792938 -4.13472595 61.12054626 -4.13571167 60.05172729 C-4.13639041 57.85805195 -4.13455749 55.66437458 -4.13037109 53.47070312 C-4.12507308 50.17052491 -4.13029818 46.87048621 -4.13671875 43.5703125 C-4.15077954 8.48202775 -4.15077954 8.48202775 0 0 Z " fill="#2A4B92" transform="translate(54,122)"/>
<path d="M0 0 C0.33 0 0.66 0 1 0 C1.00586624 0.57105469 1.01173248 1.14210937 1.01777649 1.73046875 C1.08195943 7.70100208 1.166442 13.67100875 1.26245117 19.64111328 C1.29560258 21.86597732 1.32366466 24.09092348 1.34643555 26.31591797 C1.38016145 29.5234663 1.43248712 32.73026866 1.48828125 35.9375 C1.49467117 36.92427734 1.5010611 37.91105469 1.50764465 38.92773438 C1.72284917 49.15156375 4.65000886 55.88942226 12 63 C16.25631694 66.88300193 20.63821316 70.61787255 25.03808594 74.33642578 C26.95475061 75.96163149 28.85790722 77.60134725 30.7578125 79.24609375 C31.92163162 80.24767871 33.08568308 81.24899376 34.25 82.25 C34.78641113 82.71575439 35.32282227 83.18150879 35.87548828 83.66137695 C40.57715428 87.66983889 43.83950235 88.41766086 50 88 C53.35161246 86.61785878 53.35161246 86.61785878 56 85 C55.875 87.3125 55.875 87.3125 55 90 C50.32039087 93.30996743 46.52125394 93.52583371 41 93 C38.375 91.75 38.375 91.75 36 90 C35.01 89.38125 34.02 88.7625 33 88.125 C29.97436708 85.98184335 27.54755685 83.68526262 25 81 C23.00865429 78.93206407 21.44245748 77.62830499 19 76 C14.77203056 72.58356024 10.67466131 69.00872143 7 65 C7 64.34 7 63.68 7 63 C6.34 63 5.68 63 5 63 C5 62.34 5 61.68 5 61 C4.34 61 3.68 61 3 61 C-0.85380467 52.59169891 -2.30752185 45.12709501 -2.265625 35.91796875 C-2.26753845 34.98197342 -2.2694519 34.04597809 -2.27142334 33.08161926 C-2.27277647 31.1176425 -2.26914139 29.15365653 -2.26074219 27.18969727 C-2.24996958 24.17899719 -2.26069802 21.16888559 -2.2734375 18.15820312 C-2.27211693 16.24479035 -2.26955667 14.33137794 -2.265625 12.41796875 C-2.26967346 11.51797653 -2.27372192 10.61798431 -2.27789307 9.6907196 C-2.27158875 8.8558754 -2.26528442 8.02103119 -2.25878906 7.16088867 C-2.25719788 6.42778976 -2.25560669 5.69469086 -2.25396729 4.93937683 C-2 3 -2 3 0 0 Z " fill="#1C3370" transform="translate(233,151)"/>
<path d="M0 0 C5.4297055 8.14455825 3.17901453 21.98536511 3.203125 31.640625 C3.20595238 32.41397942 3.20877975 33.18733383 3.21169281 33.98412323 C3.22655559 38.06526516 3.2358702 42.14637282 3.24023438 46.22753906 C3.24574582 50.4190972 3.26986659 54.61033495 3.29820633 58.80179214 C3.31688201 62.05158406 3.3220406 65.3012988 3.32357025 68.55113983 C3.3265787 70.09639007 3.33454546 71.64163954 3.34775543 73.18683624 C3.46865052 88.39415247 3.46865052 88.39415247 0 95 C-0.99 95.495 -0.99 95.495 -2 96 C-2.19491452 94.54263913 -2.38069358 93.08405407 -2.5625 91.625 C-2.66691406 90.81289062 -2.77132812 90.00078125 -2.87890625 89.1640625 C-3 87 -3 87 -2 85 C-1.7590119 82.14086962 -1.57606412 79.30191556 -1.4375 76.4375 C-1.39431641 75.68275391 -1.35113281 74.92800781 -1.30664062 74.15039062 C-1.03861237 68.91320352 -0.98374031 63.68830273 -1.00390625 58.4453125 C-1.04629522 46.77283252 -0.75380478 35.10655805 -0.5 23.4375 C-0.45165943 21.15430033 -0.40348125 18.87109722 -0.35546875 16.58789062 C-0.23884751 11.05855273 -0.12023598 5.52926042 0 0 Z " fill="#2A55A7" transform="translate(224,145)"/>
<path d="M0 0 C0.33 0 0.66 0 1 0 C1.02505615 0.84296631 1.0501123 1.68593262 1.07592773 2.55444336 C1.17088155 5.67241674 1.27012448 8.79021503 1.37231445 11.90795898 C1.41571223 13.25914147 1.4573837 14.61038053 1.49731445 15.96166992 C1.55489952 17.90036701 1.61914298 19.83886276 1.68359375 21.77734375 C1.72025146 22.94515381 1.75690918 24.11296387 1.79467773 25.31616211 C1.70076188 27.91779795 1.70076188 27.91779795 3 29 C3.11906052 30.47674704 3.17006688 31.9590664 3.19287109 33.44042969 C3.21696548 34.85760284 3.21696548 34.85760284 3.24154663 36.30340576 C3.28587887 40.63846254 3.32707763 44.9733633 3.35009766 49.30859375 C3.36664815 51.59580669 3.39392594 53.88296811 3.43212891 56.16992188 C3.48687848 59.46251341 3.50877116 62.75388962 3.5234375 66.046875 C3.54610687 67.06787292 3.56877625 68.08887085 3.59213257 69.14080811 C3.57100239 76.23890487 3.57100239 76.23890487 0.68994141 80.07910156 C-2.40599087 82.28991978 -5.45118152 83.64499658 -9 85 C-10.34013497 85.65288627 -11.67741528 86.31225595 -13 87 C-13.33 86.01 -13.66 85.02 -14 84 C-14.99 84 -15.98 84 -17 84 C-17 83.34 -17 82.68 -17 82 C-16.16855469 81.87882812 -15.33710938 81.75765625 -14.48046875 81.6328125 C-13.39378906 81.46523437 -12.30710937 81.29765625 -11.1875 81.125 C-10.10855469 80.96257812 -9.02960938 80.80015625 -7.91796875 80.6328125 C-4.82678207 80.14867662 -4.82678207 80.14867662 -2 78 C0.21416459 69.92555787 -0.78025385 60.49776051 -0.68359375 52.1484375 C-0.6629778 50.63814791 -0.64198027 49.12786349 -0.62062073 47.61758423 C-0.56587858 43.6754784 -0.51626184 39.73332474 -0.46777344 35.7911377 C-0.41720501 31.75524729 -0.36170495 27.71942488 -0.30664062 23.68359375 C-0.19964601 15.78912029 -0.09807509 7.89458929 0 0 Z " fill="#2C5DB2" transform="translate(290,162)"/>
<path d="M0 0 C0.33 0 0.66 0 1 0 C0.92894547 1.08356781 0.85789093 2.16713562 0.78468323 3.28353882 C0.09052654 14.4024504 -0.13453659 25.46349179 -0.09765625 36.6015625 C-0.09578398 38.3021948 -0.09436392 40.00282765 -0.09336853 41.70346069 C-0.08960692 46.11240206 -0.07983353 50.52130883 -0.06866455 54.93023682 C-0.05831119 59.45609062 -0.05384153 63.98195019 -0.04882812 68.5078125 C-0.03820341 77.33855729 -0.02120667 86.1692743 0 95 C-0.33 95 -0.66 95 -1 95 C-1.06058594 94.32453125 -1.12117188 93.6490625 -1.18359375 92.953125 C-1.26738281 92.06109375 -1.35117187 91.1690625 -1.4375 90.25 C-1.51871094 89.36828125 -1.59992187 88.4865625 -1.68359375 87.578125 C-1.93456877 85.09760258 -1.93456877 85.09760258 -2.47265625 83.109375 C-4.12562013 76.49751949 -4.14677473 69.97116402 -4.1328125 63.1953125 C-4.13376923 62.15792938 -4.13472595 61.12054626 -4.13571167 60.05172729 C-4.13639041 57.85805195 -4.13455749 55.66437458 -4.13037109 53.47070312 C-4.12507308 50.17052491 -4.13029818 46.87048621 -4.13671875 43.5703125 C-4.15077954 8.48202775 -4.15077954 8.48202775 0 0 Z " fill="#3E6DC0" transform="translate(54,122)"/>
<path d="M0 0 C0.495 1.485 0.495 1.485 1 3 C-3.9947644 8.41099476 -3.9947644 8.41099476 -8 9 C-9.155 9.350625 -10.31 9.70125 -11.5 10.0625 C-15.52958881 11.14185414 -19.26414236 11.00230105 -23.39129639 10.96203613 C-24.26345291 10.95362198 -25.13560944 10.94520782 -26.03419495 10.9365387 C-26.98293991 10.92718796 -27.93168488 10.91783722 -28.90917969 10.90820312 C-29.91438156 10.89844955 -30.91958344 10.88869598 -31.95524597 10.87864685 C-35.27745747 10.84636532 -38.59966621 10.8138087 -41.921875 10.78125 C-44.22544336 10.75881283 -46.52901188 10.7363928 -48.83258057 10.71398926 C-54.89557053 10.654977 -60.95855819 10.59573151 -67.02154541 10.53643799 C-73.20837265 10.47597445 -79.39520204 10.41573076 -85.58203125 10.35546875 C-97.72135628 10.23719472 -109.86067888 10.11867438 -122 10 C-122 9.67 -122 9.34 -122 9 C-120.27137474 8.9845388 -120.27137474 8.9845388 -118.50782776 8.96876526 C-107.57898173 8.87046204 -96.65018548 8.76768146 -85.72142124 8.66066074 C-80.10458175 8.60579746 -74.48773685 8.55244164 -68.87084961 8.50268555 C-63.43726118 8.45449513 -58.00372654 8.40214303 -52.57020378 8.34705925 C-50.51049093 8.32688013 -48.45076348 8.30813127 -46.39102364 8.29092598 C-36.72537468 8.20932751 -27.06208873 8.09534235 -17.40600586 7.63256836 C-15.42895912 7.54005043 -15.42895912 7.54005043 -13.41197205 7.44566345 C-7.55192893 6.68023894 -4.143547 4.143547 0 0 Z " fill="#204EA4" transform="translate(221,238)"/>
<path d="M0 0 C0.8125 1.6875 0.8125 1.6875 1 4 C-1.53816609 7.03169839 -3.22508911 8.74169637 -7 10 C-8.68750186 10.09005667 -10.37838077 10.12196321 -12.06828308 10.12025452 C-13.63950172 10.12231651 -13.63950172 10.12231651 -15.24246216 10.12442017 C-16.96552078 10.11902725 -16.96552078 10.11902725 -18.72338867 10.11352539 C-20.53820992 10.11374443 -20.53820992 10.11374443 -22.38969421 10.1139679 C-25.70761691 10.11339019 -29.02547756 10.1083714 -32.34338927 10.10139394 C-35.81073687 10.09514695 -39.27808527 10.09455553 -42.74543762 10.09336853 C-49.31146604 10.09025919 -55.87747782 10.08205114 -62.44349891 10.07201904 C-69.91863556 10.0608456 -77.393773 10.05534435 -84.86891592 10.05032361 C-100.24595358 10.03986821 -115.62297465 10.02227643 -131 10 C-131 9.67 -131 9.34 -131 9 C-90.74 8.67 -50.48 8.34 -9 8 C-9 7.34 -9 6.68 -9 6 C-8.071875 5.566875 -7.14375 5.13375 -6.1875 4.6875 C-3.52815927 3.27961373 -1.91894095 2.23876444 0 0 Z " fill="#122D6E" transform="translate(221,234)"/>
<path d="M0 0 C0.33 0 0.66 0 1 0 C1.01030746 0.57771652 1.02061493 1.15543304 1.03123474 1.75065613 C1.13950252 7.7691839 1.25408372 13.78756808 1.37231445 19.8059082 C1.41559833 22.05132032 1.45727801 24.29676396 1.49731445 26.54223633 C1.55517557 29.77174373 1.61882451 33.00109341 1.68359375 36.23046875 C1.70866249 37.73386055 1.70866249 37.73386055 1.73423767 39.2676239 C1.75418289 40.20822159 1.77412811 41.14881927 1.79467773 42.11791992 C1.81799416 43.35369026 1.81799416 43.35369026 1.84178162 44.61442566 C1.93253915 47.05135502 1.93253915 47.05135502 2.63783264 49.55513 C3.06369178 52.42996176 2.52235901 53.58213568 1 56 C-1.42966889 49.10461686 -2.43964494 43.01553459 -2.36328125 35.72265625 C-2.36377975 34.78949081 -2.36427826 33.85632538 -2.36479187 32.8948822 C-2.36247033 30.94283901 -2.35285687 28.99079171 -2.33618164 27.03881836 C-2.31236706 24.0457919 -2.31566266 21.05364546 -2.32226562 18.06054688 C-2.316695 16.15624468 -2.30958902 14.25194622 -2.30078125 12.34765625 C-2.30214836 11.00707909 -2.30214836 11.00707909 -2.30354309 9.63941956 C-2.29401108 8.81103073 -2.28447906 7.98264191 -2.2746582 7.12915039 C-2.27005081 6.40208389 -2.26544342 5.6750174 -2.26069641 4.92591858 C-2 3 -2 3 0 0 Z " fill="#2B4F9B" transform="translate(233,151)"/>
<path d="M0 0 C0.556875 0.70125 1.11375 1.4025 1.6875 2.125 C4.09124732 5.11344261 6.53810432 8.05940238 9 11 C8.67 11.66 8.34 12.32 8 13 C8.8353125 13.35964844 8.8353125 13.35964844 9.6875 13.7265625 C12.50976041 15.28071266 14.62708607 17.1974174 17 19.375 C17.845625 20.14585937 18.69125 20.91671875 19.5625 21.7109375 C21.10364476 23.1582305 22.62384208 24.62845459 24.11328125 26.12890625 C25.74069402 27.74284148 27.38277503 29.15676307 29.1875 30.5625 C32 33 32 33 33 36 C28.5390697 34.59799333 26.15322697 32.40216594 23 29 C21.00865429 26.93206407 19.44245748 25.62830499 17 24 C12.77203056 20.58356024 8.67466131 17.00872143 5 13 C5 12.34 5 11.68 5 11 C4.34 11 3.68 11 3 11 C3 10.34 3 9.68 3 9 C2.34 9 1.68 9 1 9 C-0.4783226 6.04335481 -0.06032783 3.25770263 0 0 Z " fill="#1E4491" transform="translate(235,203)"/>
<path d="M0 0 C0.99 0.33 1.98 0.66 3 1 C2.53851563 1.40089844 2.07703125 1.80179687 1.6015625 2.21484375 C-2.29528994 5.61111238 -6.16249997 9.03674533 -10 12.5 C-13.02453456 15.22855564 -16.05868119 17.94347414 -19.125 20.625 C-19.76050781 21.18316406 -20.39601562 21.74132812 -21.05078125 22.31640625 C-22.40760246 23.48832998 -23.78148062 24.6406733 -25.16796875 25.77734375 C-29.25736394 29.18144867 -32.01419617 31.91137768 -34 37 C-34.99 36.67 -35.98 36.34 -37 36 C-31.08666196 26.62117083 -22.84805258 19.44664074 -14.14453125 12.703125 C-11.55926518 10.64998109 -9.30145177 8.36365317 -7 6 C-5.80752114 4.85820816 -4.59822691 3.7337878 -3.375 2.625 C-2.80523437 2.10164063 -2.23546875 1.57828125 -1.6484375 1.0390625 C-0.83246094 0.52472656 -0.83246094 0.52472656 0 0 Z " fill="#618FDE" transform="translate(269,114)"/>
<path d="M0 0 C0.33 0 0.66 0 1 0 C1.07417552 5.90817518 1.12861434 11.81607911 1.16479492 17.72460938 C1.17987826 19.73442303 1.20034772 21.74420379 1.22631836 23.75390625 C1.26272144 26.64331176 1.27973088 29.53228196 1.29296875 32.421875 C1.30845261 33.31992859 1.32393646 34.21798218 1.33988953 35.14324951 C1.34158031 41.41537533 1.34158031 41.41537533 -0.51831055 44.59863281 C-1.00726807 45.06108398 -1.49622559 45.52353516 -2 46 C-3.125 40.25 -3.125 40.25 -2 38 C-1.75898841 35.14059094 -1.57446489 32.30225532 -1.4375 29.4375 C-1.37272461 28.17595093 -1.37272461 28.17595093 -1.30664062 26.88891602 C-0.99769361 20.34156857 -0.92604065 13.8108977 -1.03686523 7.25756836 C-1.10128741 2.20257482 -1.10128741 2.20257482 0 0 Z " fill="#3F5FA7" transform="translate(224,192)"/>
<path d="M0 0 C0.33 0 0.66 0 1 0 C1 14.19 1 28.38 1 43 C0.67 43 0.34 43 0 43 C-0.33 36.73 -0.66 30.46 -1 24 C-1.33 24 -1.66 24 -2 24 C-2.05802698 20.56257082 -2.09360486 17.12526747 -2.125 13.6875 C-2.14175781 12.71103516 -2.15851563 11.73457031 -2.17578125 10.72851562 C-2.18222656 9.79072266 -2.18867188 8.85292969 -2.1953125 7.88671875 C-2.20578613 7.02264404 -2.21625977 6.15856934 -2.22705078 5.26831055 C-2 3 -2 3 0 0 Z " fill="#4260A2" transform="translate(233,151)"/>
<path d="M0 0 C3.01090624 4.51635936 2.77353781 9.17304468 3.1875 14.5 C3.28224609 15.53898438 3.37699219 16.57796875 3.47460938 17.6484375 C4.03925221 24.56207959 3.86527465 31.11880294 3 38 C2.67 38 2.34 38 2 38 C0.95368771 29.98999579 0.68011614 22.00746949 0.4375 13.9375 C0.39420372 12.58136984 0.35058634 11.22524989 0.30664062 9.86914062 C0.2012789 6.57951329 0.09915048 3.28981941 0 0 Z " fill="#4976C7" transform="translate(290,120)"/>
<path d="M0 0 C0.33 1.32 0.66 2.64 1 4 C-4.35938791 7.57292527 -7.54642102 8.72862988 -14 8 C-18.56944444 5.86111111 -18.56944444 5.86111111 -20 3 C-15.545 3.99 -15.545 3.99 -11 5 C-11 4.67 -11 4.34 -11 4 C-10.37351562 3.87882813 -9.74703125 3.75765625 -9.1015625 3.6328125 C-8.28429687 3.46523437 -7.46703125 3.29765625 -6.625 3.125 C-5.81289063 2.96257812 -5.00078125 2.80015625 -4.1640625 2.6328125 C-1.81326077 2.13341068 -1.81326077 2.13341068 0 0 Z " fill="#22438B" transform="translate(288,236)"/>
<path d="M0 0 C3.37879543 1.19892741 6.35401896 2.76033034 9.4375 4.5625 C12.96403019 6.56755061 15.89616253 7.68432019 20 8 C16.81392423 10.12405051 15.77521737 10.25298796 12.1171875 9.625 C7.8201684 8.35650728 3.91933024 6.13709959 0 4 C0 2.68 0 1.36 0 0 Z " fill="#1B377A" transform="translate(68,232)"/>
<path d="M0 0 C0.99 0 1.98 0 3 0 C9.88838269 15.56036446 9.88838269 15.56036446 9 24 C8.67 24 8.34 24 8 24 C7.67 21.03 7.34 18.06 7 15 C6.34 15 5.68 15 5 15 C4.80664062 14.33613281 4.61328125 13.67226562 4.4140625 12.98828125 C2.47248648 6.40210691 2.47248648 6.40210691 0 0 Z " fill="#517BC8" transform="translate(218,130)"/>
<path d="M0 0 C5.26744215 7.90116322 2.86418677 20.01245763 2 29 C1.67 29 1.34 29 1 29 C0.35782702 19.32153574 -0.16831537 9.70618661 0 0 Z " fill="#3760AF" transform="translate(224,145)"/>
<path d="M0 0 C0.8125 1.6875 0.8125 1.6875 1 4 C-1.40123201 7.03685225 -3.06049508 8.72858747 -6.8125 9.8125 C-7.534375 9.874375 -8.25625 9.93625 -9 10 C-9 8.68 -9 7.36 -9 6 C-8.071875 5.566875 -7.14375 5.13375 -6.1875 4.6875 C-3.52815927 3.27961373 -1.91894095 2.23876444 0 0 Z " fill="#1C397D" transform="translate(221,234)"/>
<path d="M0 0 C0.556875 0.70125 1.11375 1.4025 1.6875 2.125 C4.09124732 5.11344261 6.53810432 8.05940238 9 11 C5.76138705 11 3.90259811 10.3749149 1 9 C-0.4783226 6.04335481 -0.06032783 3.25770263 0 0 Z " fill="#274384" transform="translate(235,203)"/>
<path d="M0 0 C2.51670208 0.41945035 4.65985893 0.82444332 6.9375 2 C9.57152412 3.2771026 12.11484648 3.60656997 15 4 C11.1496895 6.56687367 9.41430237 5.83288724 5 5 C4.67 4.01 4.34 3.02 4 2 C1.99983534 0.79117904 1.99983534 0.79117904 0 0 Z " fill="#1C316C" transform="translate(73,236)"/>
<path d="M0 0 C4 1.33333333 8 2.66666667 12 4 C12 4.66 12 5.32 12 6 C13.32 6.33 14.64 6.66 16 7 C9.49955416 6.65176183 5.14856037 5.05312199 0 1 C0 0.67 0 0.34 0 0 Z " fill="#1C428F" transform="translate(72,238)"/>
<path d="M0 0 C3 1 3 1 4.75 3.3125 C6 6 6 6 5.6875 8.3125 C5.460625 8.869375 5.23375 9.42625 5 10 C0 4.5 0 4.5 0 0 Z " fill="#233F81" transform="translate(59,221)"/>
<path d="M0 0 C0.66 0.33 1.32 0.66 2 1 C1.43410156 1.61488281 0.86820313 2.22976562 0.28515625 2.86328125 C-0.44832031 3.67152344 -1.18179688 4.47976562 -1.9375 5.3125 C-3.03384766 6.51326172 -3.03384766 6.51326172 -4.15234375 7.73828125 C-6.17951559 9.94639398 -6.17951559 9.94639398 -7 13 C-7.99 12.67 -8.98 12.34 -10 12 C-7.11954533 7.34695784 -3.96084779 3.78080926 0 0 Z " fill="#5282D5" transform="translate(242,138)"/>
<path d="M0 0 C3.45195767 1.4258086 5.1014256 3.09746334 7.25 6.125 C8.03117188 7.21167969 8.03117188 7.21167969 8.828125 8.3203125 C9.40820312 9.15175781 9.40820312 9.15175781 10 10 C6.11137013 8.73882275 4.10624401 7.54735833 2 4 C2 3.34 2 2.68 2 2 C1.34 2 0.68 2 0 2 C0 1.34 0 0.68 0 0 Z " fill="#234A99" transform="translate(238,212)"/>
<path d="M0 0 C3.26739717 1.63369858 3.71704704 4.70894675 5 8 C5.37308631 9.32276056 5.73046415 10.65232077 6 12 C2.59156258 9.11593757 1.13408616 7.6291735 0.1875 3.1875 C0.125625 2.135625 0.06375 1.08375 0 0 Z " fill="#2554A7" transform="translate(57,220)"/>
<path d="M0 0 C0.99 0.33 1.98 0.66 3 1 C1.73742767 2.17560179 0.46462916 3.34022865 -0.8125 4.5 C-1.87404297 5.47453125 -1.87404297 5.47453125 -2.95703125 6.46875 C-5 8 -5 8 -8 8 C-5.33333333 5.33333333 -2.66666667 2.66666667 0 0 Z " fill="#6996E3" transform="translate(269,114)"/>
<path d="M0 0 C0.1875 2.375 0.1875 2.375 0 5 C-0.99 5.66 -1.98 6.32 -3 7 C-3.33 5.35 -3.66 3.7 -4 2 C-1 0 -1 0 0 0 Z " fill="#2755A7" transform="translate(292,233)"/>
</svg>
